<svg xmlns="http://www.w3.org/2000/svg" width="35" height="35" x="0" y="0" fill="white" viewBox="0 0 65 65"><g data-hook="textFill"><path transform="translate(-1, -1)" class="_3eJ0f" d="M43.5,17.4H24.9a3.1,3.1,0,0,0-3.3,3.1V49.6a2,2,0,0,0,1.1,2,2.1,2.1,0,0,0,2.2-.5L34,40.9l.4-.2h5.6c2.4,0,2.8-1.7,3-2.7s2.5-12.6,3.3-16.3-.1-4.4-2.9-4.4Zm-.4,20.7c.2-.8,2.5-12.6,3.3-16.3L43.1,38.1Zm-.7-15.7-.8,4a1.1,1.1,0,0,1-1,.8H33.4a1.5,1.5,0,0,0-1.5,1.4v.9a1.5,1.5,0,0,0,1.5,1.5h6.2a1,1,0,0,1,.9,1.1l-.8,4.1a1,1,0,0,1-1,.8h-5c-1,0-1.3,0-1.9.8L25.6,45h-.1V22.3a1.2,1.2,0,0,1,1.1-1.1H41.5a1,1,0,0,1,.9,1.2Z"></path></g></svg>